<?xml version="1.0" encoding="utf-8"?>
<!-- Generator: Adobe Illustrator 15.0.2, SVG Export Plug-In . SVG Version: 6.00 Build 0)  -->
<!DOCTYPE svg PUBLIC "-//W3C//DTD SVG 1.1//EN" "http://www.w3.org/Graphics/SVG/1.1/DTD/svg11.dtd">
<svg version="1.1" id="logo" xmlns="http://www.w3.org/2000/svg" xmlns:xlink="http://www.w3.org/1999/xlink" x="0px" y="0px"
	 width="482px" height="107.333px" viewBox="0 0 482 107.333" enable-background="new 0 0 482 107.333" xml:space="preserve">
<g>
	<g>
		<path fill="#FFFFFF" d="M134.646,34.358h4.048v35.289c0,3.871,0.425,7.084,1.276,9.635c0.85,2.553,1.98,4.607,3.388,6.16
			c1.408,1.557,3.049,2.656,4.928,3.301c1.877,0.646,3.842,0.969,5.896,0.969c2.112,0,4.106-0.322,5.984-0.969
			c1.877-0.645,3.549-1.744,5.016-3.301c1.466-1.553,2.625-3.607,3.476-6.16c0.85-2.551,1.276-5.764,1.276-9.635V34.358h3.872
			v35.728c0,4.518-0.558,8.271-1.672,11.264c-1.115,2.992-2.583,5.383-4.4,7.172c-1.819,1.791-3.916,3.051-6.292,3.785
			c-2.376,0.732-4.796,1.1-7.26,1.1c-2.523,0-4.958-0.367-7.304-1.1c-2.347-0.734-4.431-1.994-6.248-3.785
			c-1.819-1.789-3.271-4.18-4.356-7.172c-1.086-2.992-1.628-6.746-1.628-11.264V34.358z M147.23,28.551
			c-0.939,0-1.702-0.278-2.288-0.836c-0.587-0.557-0.88-1.333-0.88-2.332c0-0.997,0.293-1.789,0.88-2.376
			c0.585-0.585,1.349-0.88,2.288-0.88c0.938,0,1.716,0.294,2.332,0.88c0.616,0.587,0.924,1.379,0.924,2.376
			c0,0.998-0.308,1.775-0.924,2.332C148.947,28.273,148.168,28.551,147.23,28.551z M161.135,28.551
			c-0.939,0-1.716-0.278-2.332-0.836c-0.616-0.557-0.924-1.333-0.924-2.332c0-0.997,0.308-1.789,0.924-2.376
			c0.616-0.585,1.393-0.88,2.332-0.88c0.938,0,1.701,0.294,2.288,0.88c0.585,0.587,0.88,1.379,0.88,2.376
			c0,0.998-0.294,1.775-0.88,2.332C162.835,28.273,162.072,28.551,161.135,28.551z"/>
		<path fill="#FFFFFF" d="M189.911,29.079h3.872v18.304l-0.176,8.272c2.17-1.818,4.488-3.373,6.952-4.664
			c2.464-1.29,5.016-1.936,7.656-1.936c5.632,0,9.856,1.951,12.672,5.852c2.816,3.902,4.224,9.139,4.224,15.707
			c0,3.58-0.499,6.777-1.496,9.594c-0.998,2.814-2.362,5.207-4.092,7.172c-1.731,1.965-3.726,3.461-5.984,4.486
			c-2.259,1.027-4.62,1.541-7.084,1.541c-2.054,0-4.18-0.455-6.38-1.363c-2.2-0.91-4.298-2.127-6.292-3.652h-0.176l-0.44,3.959
			h-3.256V29.079z M193.782,84.518c2.346,1.996,4.605,3.404,6.776,4.225c2.169,0.822,4.077,1.232,5.72,1.232
			c2.112,0,4.077-0.469,5.896-1.408c1.818-0.938,3.373-2.258,4.664-3.961c1.29-1.701,2.302-3.74,3.036-6.115
			c0.733-2.377,1.1-5.002,1.1-7.877c0-2.58-0.25-4.984-0.748-7.215c-0.499-2.229-1.276-4.15-2.332-5.764
			c-1.056-1.613-2.435-2.874-4.136-3.784c-1.702-0.909-3.755-1.364-6.16-1.364c-2.112,0-4.312,0.602-6.6,1.804
			c-2.288,1.203-4.694,2.919-7.216,5.148V84.518z"/>
		<path fill="#FFFFFF" d="M234.262,71.319c0-3.461,0.513-6.57,1.54-9.328c1.025-2.757,2.405-5.089,4.136-6.996
			c1.73-1.906,3.696-3.373,5.896-4.4c2.2-1.026,4.473-1.54,6.82-1.54c5.045,0,9.005,1.702,11.88,5.104
			c2.874,3.403,4.312,8.215,4.312,14.432c0,0.527,0,1.057,0,1.584s-0.059,1.057-0.176,1.584h-30.448
			c0.058,2.641,0.469,5.09,1.232,7.348c0.762,2.26,1.833,4.195,3.212,5.809c1.378,1.615,3.036,2.875,4.972,3.783
			c1.936,0.91,4.105,1.365,6.512,1.365c2.288,0,4.356-0.338,6.204-1.012s3.564-1.598,5.148-2.773l1.584,2.992
			c-1.702,0.998-3.564,1.938-5.588,2.816c-2.024,0.881-4.591,1.32-7.7,1.32c-2.699,0-5.236-0.5-7.612-1.496
			s-4.444-2.449-6.204-4.355c-1.76-1.906-3.154-4.225-4.18-6.953C234.775,77.875,234.262,74.782,234.262,71.319z M265.15,68.766
			c0-5.455-1.115-9.547-3.344-12.275c-2.23-2.728-5.251-4.092-9.064-4.092c-1.819,0-3.55,0.382-5.192,1.144
			c-1.643,0.763-3.124,1.848-4.444,3.256c-1.32,1.408-2.406,3.124-3.256,5.147c-0.851,2.025-1.395,4.299-1.628,6.82H265.15z"/>
		<path fill="#FFFFFF" d="M280.285,50.11h3.344l0.352,7.832h0.264c1.408-2.64,3.125-4.781,5.148-6.424
			c2.023-1.642,4.297-2.464,6.82-2.464c0.82,0,1.553,0.059,2.199,0.176c0.645,0.118,1.32,0.352,2.024,0.704l-0.88,3.52
			c-0.704-0.293-1.32-0.484-1.848-0.572c-0.528-0.088-1.203-0.132-2.024-0.132c-1.878,0-3.858,0.807-5.94,2.42
			c-2.083,1.614-3.945,4.416-5.588,8.404V92.35h-3.871V50.11z"/>
		<path fill="#FFFFFF" d="M322.082,63.223c0-4.577,0.602-8.712,1.805-12.409c1.201-3.696,2.889-6.849,5.06-9.46
			c2.17-2.61,4.78-4.605,7.832-5.984c3.05-1.378,6.424-2.068,10.12-2.068c3.401,0,6.38,0.704,8.932,2.112
			c2.553,1.408,4.59,3.022,6.116,4.84l-2.376,2.64c-1.584-1.76-3.432-3.182-5.544-4.268c-2.112-1.085-4.488-1.628-7.128-1.628
			c-3.168,0-6.028,0.616-8.58,1.848c-2.553,1.232-4.708,2.978-6.469,5.236c-1.76,2.259-3.123,5.002-4.092,8.228
			c-0.968,3.227-1.451,6.864-1.451,10.913c0,4.047,0.469,7.699,1.408,10.955c0.938,3.256,2.287,6.029,4.047,8.316
			c1.761,2.287,3.887,4.062,6.381,5.324c2.492,1.262,5.293,1.893,8.404,1.893c2.991,0,5.66-0.586,8.008-1.762
			c2.346-1.172,4.576-2.961,6.688-5.367l2.376,2.553c-2.229,2.582-4.708,4.605-7.437,6.072c-2.728,1.465-5.998,2.199-9.812,2.199
			c-3.579,0-6.851-0.705-9.812-2.111c-2.963-1.408-5.516-3.418-7.656-6.029c-2.143-2.609-3.814-5.777-5.016-9.504
			C322.684,72.038,322.082,67.858,322.082,63.223z"/>
		<path fill="#FFFFFF" d="M373.21,50.11h3.872v26.576c0,4.52,0.748,7.848,2.244,9.988c1.496,2.143,3.945,3.213,7.348,3.213
			c2.521,0,4.811-0.689,6.864-2.068c2.053-1.379,4.312-3.564,6.776-6.557V50.11h3.871v42.24h-3.256l-0.439-7.039h-0.176
			c-2.055,2.463-4.225,4.43-6.513,5.896c-2.288,1.465-4.899,2.199-7.831,2.199c-4.4,0-7.628-1.32-9.681-3.961
			c-2.054-2.639-3.08-6.717-3.08-12.23V50.11z"/>
		<path fill="#FFFFFF" d="M421.346,53.455h-6.6v-2.992l6.688-0.352l0.528-12.232h3.344V50.11h12.231v3.344h-12.231v27.544
			c0,1.35,0.103,2.566,0.308,3.652s0.572,2.023,1.101,2.816c0.528,0.791,1.245,1.408,2.155,1.848s2.098,0.66,3.564,0.66
			c0.82,0,1.717-0.133,2.684-0.396c0.969-0.264,1.834-0.572,2.597-0.924l1.056,3.168c-1.232,0.471-2.464,0.85-3.695,1.145
			c-1.232,0.293-2.289,0.439-3.168,0.439c-2.055,0-3.756-0.309-5.104-0.924c-1.351-0.617-2.435-1.48-3.256-2.596
			c-0.822-1.115-1.395-2.465-1.716-4.049c-0.323-1.584-0.484-3.314-0.484-5.191V53.455z"/>
		<path fill="#FFFFFF" d="M443.434,71.319c0-3.461,0.514-6.57,1.541-9.328c1.025-2.757,2.404-5.089,4.135-6.996
			c1.73-1.906,3.697-3.373,5.896-4.4c2.2-1.026,4.473-1.54,6.82-1.54c5.045,0,9.004,1.702,11.88,5.104
			c2.874,3.403,4.312,8.215,4.312,14.432c0,0.527,0,1.057,0,1.584s-0.059,1.057-0.176,1.584h-30.447
			c0.057,2.641,0.469,5.09,1.231,7.348c0.762,2.26,1.833,4.195,3.212,5.809c1.378,1.615,3.036,2.875,4.973,3.783
			c1.936,0.91,4.105,1.365,6.512,1.365c2.287,0,4.355-0.338,6.203-1.012c1.849-0.674,3.564-1.598,5.148-2.773l1.584,2.992
			c-1.702,0.998-3.564,1.938-5.588,2.816c-2.023,0.881-4.592,1.32-7.7,1.32c-2.698,0-5.235-0.5-7.612-1.496
			c-2.375-0.996-4.443-2.449-6.203-4.355s-3.154-4.225-4.18-6.953C443.947,77.875,443.434,74.782,443.434,71.319z M474.322,68.766
			c0-5.455-1.115-9.547-3.344-12.275c-2.23-2.728-5.252-4.092-9.064-4.092c-1.819,0-3.551,0.382-5.192,1.144
			c-1.644,0.763-3.124,1.848-4.444,3.256c-1.319,1.408-2.406,3.124-3.256,5.147c-0.851,2.025-1.395,4.299-1.627,6.82H474.322z"/>
	</g>
	<g>
		<g>
			<path fill="#555555" d="M134.646,33.358h4.048v35.289c0,3.871,0.425,7.084,1.276,9.635c0.85,2.553,1.98,4.607,3.388,6.16
				c1.408,1.557,3.049,2.656,4.928,3.301c1.877,0.646,3.842,0.969,5.896,0.969c2.112,0,4.106-0.322,5.984-0.969
				c1.877-0.645,3.549-1.744,5.016-3.301c1.466-1.553,2.625-3.607,3.476-6.16c0.85-2.551,1.276-5.764,1.276-9.635V33.358h3.872
				v35.728c0,4.518-0.558,8.271-1.672,11.264c-1.115,2.992-2.583,5.383-4.4,7.172c-1.819,1.791-3.916,3.051-6.292,3.785
				c-2.376,0.732-4.796,1.1-7.26,1.1c-2.523,0-4.958-0.367-7.304-1.1c-2.347-0.734-4.431-1.994-6.248-3.785
				c-1.819-1.789-3.271-4.18-4.356-7.172c-1.086-2.992-1.628-6.746-1.628-11.264V33.358z M147.23,27.551
				c-0.939,0-1.702-0.278-2.288-0.836c-0.587-0.557-0.88-1.333-0.88-2.332c0-0.997,0.293-1.789,0.88-2.376
				c0.585-0.585,1.349-0.88,2.288-0.88c0.938,0,1.716,0.294,2.332,0.88c0.616,0.587,0.924,1.379,0.924,2.376
				c0,0.998-0.308,1.775-0.924,2.332C148.947,27.273,148.168,27.551,147.23,27.551z M161.135,27.551
				c-0.939,0-1.716-0.278-2.332-0.836c-0.616-0.557-0.924-1.333-0.924-2.332c0-0.997,0.308-1.789,0.924-2.376
				c0.616-0.585,1.393-0.88,2.332-0.88c0.938,0,1.701,0.294,2.288,0.88c0.585,0.587,0.88,1.379,0.88,2.376
				c0,0.998-0.294,1.775-0.88,2.332C162.835,27.273,162.072,27.551,161.135,27.551z"/>
			<path fill="#555555" d="M189.911,28.079h3.872v18.304l-0.176,8.272c2.17-1.818,4.488-3.373,6.952-4.664
				c2.464-1.29,5.016-1.936,7.656-1.936c5.632,0,9.856,1.951,12.672,5.852c2.816,3.902,4.224,9.139,4.224,15.707
				c0,3.58-0.499,6.777-1.496,9.594c-0.998,2.814-2.362,5.207-4.092,7.172c-1.731,1.965-3.726,3.461-5.984,4.486
				c-2.259,1.027-4.62,1.541-7.084,1.541c-2.054,0-4.18-0.455-6.38-1.363c-2.2-0.91-4.298-2.127-6.292-3.652h-0.176l-0.44,3.959
				h-3.256V28.079z M193.782,83.518c2.346,1.996,4.605,3.404,6.776,4.225c2.169,0.822,4.077,1.232,5.72,1.232
				c2.112,0,4.077-0.469,5.896-1.408c1.818-0.938,3.373-2.258,4.664-3.961c1.29-1.701,2.302-3.74,3.036-6.115
				c0.733-2.377,1.1-5.002,1.1-7.877c0-2.58-0.25-4.984-0.748-7.215c-0.499-2.229-1.276-4.15-2.332-5.764
				c-1.056-1.613-2.435-2.874-4.136-3.784c-1.702-0.909-3.755-1.364-6.16-1.364c-2.112,0-4.312,0.602-6.6,1.804
				c-2.288,1.203-4.694,2.919-7.216,5.148V83.518z"/>
			<path fill="#555555" d="M234.262,70.319c0-3.461,0.513-6.57,1.54-9.328c1.025-2.757,2.405-5.089,4.136-6.996
				c1.73-1.906,3.696-3.373,5.896-4.4c2.2-1.026,4.473-1.54,6.82-1.54c5.045,0,9.005,1.702,11.88,5.104
				c2.874,3.403,4.312,8.215,4.312,14.432c0,0.527,0,1.057,0,1.584s-0.059,1.057-0.176,1.584h-30.448
				c0.058,2.641,0.469,5.09,1.232,7.348c0.762,2.26,1.833,4.195,3.212,5.809c1.378,1.615,3.036,2.875,4.972,3.783
				c1.936,0.91,4.105,1.365,6.512,1.365c2.288,0,4.356-0.338,6.204-1.012s3.564-1.598,5.148-2.773l1.584,2.992
				c-1.702,0.998-3.564,1.938-5.588,2.816c-2.024,0.881-4.591,1.32-7.7,1.32c-2.699,0-5.236-0.5-7.612-1.496
				s-4.444-2.449-6.204-4.355c-1.76-1.906-3.154-4.225-4.18-6.953C234.775,76.875,234.262,73.782,234.262,70.319z M265.15,67.766
				c0-5.455-1.115-9.547-3.344-12.275c-2.23-2.728-5.251-4.092-9.064-4.092c-1.819,0-3.55,0.382-5.192,1.144
				c-1.643,0.763-3.124,1.848-4.444,3.256c-1.32,1.408-2.406,3.124-3.256,5.147c-0.851,2.025-1.395,4.299-1.628,6.82H265.15z"/>
			<path fill="#555555" d="M280.285,49.11h3.344l0.352,7.832h0.264c1.408-2.64,3.125-4.781,5.148-6.424
				c2.023-1.642,4.297-2.464,6.82-2.464c0.82,0,1.553,0.059,2.199,0.176c0.645,0.118,1.32,0.352,2.024,0.704l-0.88,3.52
				c-0.704-0.293-1.32-0.484-1.848-0.572c-0.528-0.088-1.203-0.132-2.024-0.132c-1.878,0-3.858,0.807-5.94,2.42
				c-2.083,1.614-3.945,4.416-5.588,8.404V91.35h-3.871V49.11z"/>
			<path fill="#555555" d="M322.082,62.223c0-4.577,0.602-8.712,1.805-12.409c1.201-3.696,2.889-6.849,5.06-9.46
				c2.17-2.61,4.78-4.605,7.832-5.984c3.05-1.378,6.424-2.068,10.12-2.068c3.401,0,6.38,0.704,8.932,2.112
				c2.553,1.408,4.59,3.022,6.116,4.84l-2.376,2.64c-1.584-1.76-3.432-3.182-5.544-4.268c-2.112-1.085-4.488-1.628-7.128-1.628
				c-3.168,0-6.028,0.616-8.58,1.848c-2.553,1.232-4.708,2.978-6.469,5.236c-1.76,2.259-3.123,5.002-4.092,8.228
				c-0.968,3.227-1.451,6.864-1.451,10.913c0,4.047,0.469,7.699,1.408,10.955c0.938,3.256,2.287,6.029,4.047,8.316
				c1.761,2.287,3.887,4.062,6.381,5.324c2.492,1.262,5.293,1.893,8.404,1.893c2.991,0,5.66-0.586,8.008-1.762
				c2.346-1.172,4.576-2.961,6.688-5.367l2.376,2.553c-2.229,2.582-4.708,4.605-7.437,6.072c-2.728,1.465-5.998,2.199-9.812,2.199
				c-3.579,0-6.851-0.705-9.812-2.111c-2.963-1.408-5.516-3.418-7.656-6.029c-2.143-2.609-3.814-5.777-5.016-9.504
				C322.684,71.038,322.082,66.858,322.082,62.223z"/>
			<path fill="#555555" d="M373.21,49.11h3.872v26.576c0,4.52,0.748,7.848,2.244,9.988c1.496,2.143,3.945,3.213,7.348,3.213
				c2.521,0,4.811-0.689,6.864-2.068c2.053-1.379,4.312-3.564,6.776-6.557V49.11h3.871v42.24h-3.256l-0.439-7.039h-0.176
				c-2.055,2.463-4.225,4.43-6.513,5.896c-2.288,1.465-4.899,2.199-7.831,2.199c-4.4,0-7.628-1.32-9.681-3.961
				c-2.054-2.639-3.08-6.717-3.08-12.23V49.11z"/>
			<path fill="#555555" d="M421.346,52.455h-6.6v-2.992l6.688-0.352l0.528-12.232h3.344V49.11h12.231v3.344h-12.231v27.544
				c0,1.35,0.103,2.566,0.308,3.652s0.572,2.023,1.101,2.816c0.528,0.791,1.245,1.408,2.155,1.848s2.098,0.66,3.564,0.66
				c0.82,0,1.717-0.133,2.684-0.396c0.969-0.264,1.834-0.572,2.597-0.924l1.056,3.168c-1.232,0.471-2.464,0.85-3.695,1.145
				c-1.232,0.293-2.289,0.439-3.168,0.439c-2.055,0-3.756-0.309-5.104-0.924c-1.351-0.617-2.435-1.48-3.256-2.596
				c-0.822-1.115-1.395-2.465-1.716-4.049c-0.323-1.584-0.484-3.314-0.484-5.191V52.455z"/>
			<path fill="#555555" d="M443.434,70.319c0-3.461,0.514-6.57,1.541-9.328c1.025-2.757,2.404-5.089,4.135-6.996
				c1.73-1.906,3.697-3.373,5.896-4.4c2.2-1.026,4.473-1.54,6.82-1.54c5.045,0,9.004,1.702,11.88,5.104
				c2.874,3.403,4.312,8.215,4.312,14.432c0,0.527,0,1.057,0,1.584s-0.059,1.057-0.176,1.584h-30.447
				c0.057,2.641,0.469,5.09,1.231,7.348c0.762,2.26,1.833,4.195,3.212,5.809c1.378,1.615,3.036,2.875,4.973,3.783
				c1.936,0.91,4.105,1.365,6.512,1.365c2.287,0,4.355-0.338,6.203-1.012c1.849-0.674,3.564-1.598,5.148-2.773l1.584,2.992
				c-1.702,0.998-3.564,1.938-5.588,2.816c-2.023,0.881-4.592,1.32-7.7,1.32c-2.698,0-5.235-0.5-7.612-1.496
				c-2.375-0.996-4.443-2.449-6.203-4.355s-3.154-4.225-4.18-6.953C443.947,76.875,443.434,73.782,443.434,70.319z M474.322,67.766
				c0-5.455-1.115-9.547-3.344-12.275c-2.23-2.728-5.252-4.092-9.064-4.092c-1.819,0-3.551,0.382-5.192,1.144
				c-1.644,0.763-3.124,1.848-4.444,3.256c-1.319,1.408-2.406,3.124-3.256,5.147c-0.851,2.025-1.395,4.299-1.627,6.82H474.322z"/>
		</g>
	</g>
</g>
<g>
	<g id="Layer_1_1_">
		<g id="Layer_2">
			<path fill="#A3CBD6" d="M35.31,85.088c-3.52,0.295-1.794,11.202-8.477,10.784c-6.683-0.419-13.478-9.963-7.403-14.106
				c10.148-6.923,5.855-21.588,5.855-21.588"/>
			<path fill="#A3CBD6" d="M74.025,87.543c-4.503-0.85,0.584,12.283-6.548,11.409c-8.354-1.023-13.607-5.982-9.08-13.186
				c6.225-9.905,9.492-17.037,9.492-17.037"/>
		</g>
		<path fill="#B3D4FC" d="M23.176,40.042"/>
		<path fill="#B3D4FC" d="M29.442,35.414c-0.845-3-3.861,2.607-9.962,6.51c-7.438,4.758-12.133-4.511-12.133-4.511l-1.459-2.622
			c-1.443-1.29,0.809-1.873,0.831-0.337l0.281,1.091c5.812,9.672,10.209,6.098,11.508,4.571
			c1.212-1.424,11.035-15.835,11.035-15.835"/>
		<path fill="#B3D4FC" d="M23.395,52.512c0,0,7,27.829,8.841,39.261c0.799,4.959,2.681,9.16,8.2,9.811
			c1.61,0.189,13.8,2.218,10.05-5.291c-3.75-7.51-5.604-22.494-4.402-24.158"/>
		<path fill="#B3D4FC" d="M87.547,59.075c-6.146,6.511-0.247,28.507,3.841,35.838c4.089,7.331-8.585,6.417-9.888,6.377
			c-1.303-0.04-7.206,1.211-8.547-10.062C69.886,65.463,62.876,68.73,62.876,68.73"/>
		<path fill="#B3D4FC" d="M38.038,104.274"/>
		<path fill="#B3D4FC" d="M76.582,104.694"/>
	</g>
	<g>
		<path fill="#B3D4FC" d="M26.421,29.476c3.858-7.945,10.523-14.174,18.713-17.161c-3.533,7.79,0.641,20,3.702,27.088
			c2.837,6.571,0.628,25.792,12.807,24.745c3.29-0.282,5.024-1.256,5.946-2.544c-1.187,0.488-2.735,0.832-4.798,0.957
			c-12.002,0.726-9.312-17.506-11.925-23.817c-2.248-5.43-8.344-19.634-2.34-27.458c1.825-0.443,3.711-0.732,5.647-0.849
			c13.087-0.792,20.262,9.448,26.455,20.648c2.549,4.61,8.782,6.883,9.125,12.557c1.177,19.455-12.845,36.134-31.319,37.251
			s-34.403-13.749-35.58-33.204C22.458,41.14,23.784,34.907,26.421,29.476z"/>
		<path fill="#B3D4FC" d="M50.866,38.744c-2.612-6.311-10.426-24.476,1.607-30.698c12.394-6.408,19.84-2.744,24.184,2.506
			c4.323,5.224,5.576,12.018,5.576,12.018l-5.742,30.462c-5.879,0.541-3.185,6.224-8.902,8.572
			c-1.187,0.488-2.735,0.832-4.798,0.957C50.789,63.287,53.479,45.055,50.866,38.744z"/>
		<path fill="#B3D4FC" d="M84.187,59.78c0,0-1.449,11.451,15.568,28.726c0,0,1.426,0.795,2.538-0.511
			c0.208-0.246,1.54,0.947,2.13,0.229c-0.836-3.432-12.508-13.632-5.708-27.985c5.732-12.098,7.904-35.277-15.101-46.823
			c0,0-10.876-6.481-26.778-0.166L84.187,59.78z M85.594,32.857c0-0.844,0.685-1.53,1.529-1.53s1.529,0.686,1.529,1.53
			c0,0.845-0.685,1.53-1.529,1.53S85.594,33.702,85.594,32.857z"/>
	</g>
</g>
</svg>
