<?xml version="1.0" encoding="utf-8"?>
<!-- Generator: Adobe Illustrator 15.0.2, SVG Export Plug-In . SVG Version: 6.00 Build 0)  -->
<!DOCTYPE svg PUBLIC "-//W3C//DTD SVG 1.1//EN" "http://www.w3.org/Graphics/SVG/1.1/DTD/svg11.dtd">
<svg version="1.1" id="Layer_1" xmlns="http://www.w3.org/2000/svg" xmlns:xlink="http://www.w3.org/1999/xlink" x="0px" y="0px"
	 width="150px" height="150px" viewBox="0 0 150 150" enable-background="new 0 0 150 150" xml:space="preserve">
<path fill="#555555" d="M52.75,85.986c0-5.135,0.616-9.4,1.85-12.8c1.232-3.4,2.883-6.117,4.95-8.15
	c2.066-2.034,4.433-3.467,7.1-4.3c2.666-0.833,5.433-1.25,8.3-1.25c2.8,0,5.55,0.417,8.25,1.25c2.701,0.833,5.084,2.266,7.15,4.3
	c2.066,2.033,3.732,4.75,5,8.15c1.266,3.4,1.9,7.666,1.9,12.8v40.6h-4.4v-40.1c0-4.4-0.484-8.051-1.449-10.951
	c-0.968-2.899-2.285-5.234-3.951-7c-1.666-1.767-3.566-3.017-5.699-3.75c-2.135-0.734-4.4-1.1-6.8-1.1c-2.334,0-4.567,0.365-6.7,1.1
	c-2.134,0.733-4,1.983-5.6,3.75c-1.6,1.766-2.884,4.101-3.85,7c-0.967,2.9-1.45,6.55-1.45,10.951v40.1h-4.6V85.986z"/>
<path fill="#555555" d="M67.05,52.885c-1.067,0-1.934-0.315-2.6-0.95c-0.667-0.633-1-1.516-1-2.65c0-1.133,0.333-2.033,1-2.7
	c0.666-0.666,1.533-1,2.6-1c1.066,0,1.95,0.334,2.65,1c0.7,0.667,1.05,1.567,1.05,2.7c0,1.134-0.35,2.017-1.05,2.65
	C69,52.57,68.116,52.885,67.05,52.885z"/>
<path fill="#555555" d="M82.85,52.885c-1.066,0-1.949-0.315-2.65-0.95c-0.699-0.633-1.049-1.516-1.049-2.65
	c0-1.133,0.35-2.033,1.049-2.7c0.701-0.666,1.584-1,2.65-1s1.934,0.334,2.6,1c0.666,0.667,1,1.567,1,2.7c0,1.134-0.334,2.017-1,2.65
	C84.783,52.57,83.916,52.885,82.85,52.885z"/>
<g>
	<path fill="#808080" d="M40.705,25.245h1.008v7.872h-1.008V25.245z"/>
	<path fill="#808080" d="M43.74,27.285h0.816l0.084,0.84h0.036c0.256-0.279,0.534-0.514,0.834-0.702
		c0.3-0.188,0.626-0.281,0.978-0.281c0.448,0,0.798,0.098,1.05,0.294c0.252,0.195,0.438,0.47,0.558,0.821
		c0.304-0.336,0.61-0.605,0.918-0.81s0.642-0.306,1.002-0.306c0.6,0,1.046,0.191,1.338,0.575c0.292,0.385,0.438,0.952,0.438,1.704
		v3.696h-0.984v-3.564c0-0.552-0.088-0.949-0.264-1.193c-0.176-0.244-0.448-0.366-0.816-0.366c-0.44,0-0.928,0.3-1.464,0.9v4.224
		H47.28v-3.564c0-0.552-0.088-0.949-0.264-1.193c-0.176-0.244-0.452-0.366-0.828-0.366c-0.44,0-0.928,0.3-1.464,0.9v4.224H43.74
		V27.285z"/>
	<path fill="#808080" d="M53.4,31.605c0-0.641,0.286-1.13,0.858-1.471c0.572-0.34,1.482-0.577,2.73-0.714
		c0-0.184-0.018-0.363-0.054-0.54c-0.036-0.176-0.1-0.332-0.192-0.468c-0.092-0.136-0.214-0.246-0.366-0.33
		s-0.348-0.126-0.588-0.126c-0.344,0-0.662,0.064-0.954,0.192s-0.554,0.271-0.786,0.432l-0.396-0.684
		c0.271-0.176,0.604-0.347,0.996-0.511c0.392-0.163,0.824-0.245,1.296-0.245c0.712,0,1.228,0.218,1.548,0.653
		c0.32,0.437,0.48,1.019,0.48,1.746v3.576h-0.816l-0.084-0.696h-0.024c-0.28,0.232-0.582,0.431-0.906,0.595
		c-0.324,0.163-0.666,0.245-1.026,0.245c-0.496,0-0.906-0.144-1.23-0.432C53.562,32.541,53.4,32.132,53.4,31.605z M54.373,31.533
		c0,0.336,0.098,0.576,0.294,0.72c0.196,0.145,0.438,0.216,0.726,0.216c0.28,0,0.546-0.065,0.798-0.197s0.518-0.326,0.798-0.582
		v-1.62c-0.488,0.064-0.9,0.14-1.236,0.228c-0.336,0.089-0.606,0.192-0.81,0.312c-0.204,0.12-0.35,0.258-0.438,0.414
		C54.417,31.178,54.373,31.349,54.373,31.533z"/>
	<path fill="#808080" d="M59.389,34.233c0-0.248,0.076-0.484,0.228-0.708c0.152-0.225,0.36-0.428,0.624-0.612v-0.048
		c-0.144-0.088-0.266-0.21-0.366-0.366s-0.15-0.35-0.15-0.582c0-0.248,0.068-0.464,0.204-0.647c0.136-0.185,0.28-0.328,0.432-0.433
		v-0.048c-0.192-0.16-0.366-0.374-0.522-0.642c-0.156-0.269-0.234-0.578-0.234-0.931c0-0.319,0.058-0.607,0.174-0.863
		c0.116-0.256,0.274-0.475,0.474-0.654c0.2-0.18,0.434-0.318,0.702-0.414s0.55-0.144,0.846-0.144c0.16,0,0.31,0.014,0.45,0.042
		c0.14,0.027,0.266,0.062,0.378,0.102h2.028v0.756h-1.2c0.136,0.137,0.25,0.309,0.342,0.517c0.092,0.208,0.138,0.436,0.138,0.684
		c0,0.312-0.056,0.594-0.168,0.846s-0.264,0.464-0.456,0.637c-0.192,0.172-0.418,0.306-0.678,0.401
		c-0.26,0.096-0.538,0.145-0.834,0.145c-0.144,0-0.292-0.019-0.444-0.055s-0.296-0.086-0.432-0.149
		c-0.104,0.088-0.192,0.186-0.264,0.294c-0.072,0.107-0.108,0.242-0.108,0.401c0,0.185,0.072,0.337,0.216,0.456
		c0.144,0.12,0.416,0.181,0.816,0.181h1.128c0.68,0,1.19,0.109,1.53,0.33c0.34,0.22,0.51,0.573,0.51,1.062
		c0,0.272-0.068,0.53-0.204,0.774c-0.136,0.243-0.332,0.458-0.588,0.642c-0.256,0.184-0.566,0.33-0.93,0.438
		c-0.364,0.107-0.774,0.162-1.23,0.162c-0.36,0-0.688-0.034-0.984-0.103s-0.55-0.17-0.762-0.306c-0.212-0.137-0.376-0.3-0.492-0.492
		C59.447,34.712,59.389,34.489,59.389,34.233z M60.252,34.101c0,0.312,0.15,0.56,0.45,0.743c0.3,0.185,0.714,0.276,1.242,0.276
		c0.28,0,0.534-0.034,0.762-0.102c0.228-0.068,0.422-0.156,0.582-0.265c0.16-0.107,0.284-0.233,0.372-0.378
		c0.088-0.144,0.132-0.292,0.132-0.443c0-0.272-0.1-0.461-0.3-0.564c-0.2-0.104-0.492-0.156-0.876-0.156h-1.008
		c-0.112,0-0.234-0.006-0.366-0.018s-0.262-0.038-0.39-0.078c-0.208,0.152-0.36,0.312-0.456,0.48
		C60.301,33.765,60.252,33.933,60.252,34.101z M61.801,30.609c0.168,0,0.326-0.032,0.474-0.096c0.148-0.064,0.28-0.156,0.396-0.276
		c0.116-0.12,0.206-0.266,0.27-0.438c0.064-0.172,0.096-0.365,0.096-0.582c0-0.432-0.12-0.766-0.36-1.002
		c-0.24-0.235-0.532-0.354-0.876-0.354c-0.344,0-0.636,0.118-0.876,0.354c-0.24,0.236-0.36,0.57-0.36,1.002
		c0,0.217,0.032,0.41,0.096,0.582c0.064,0.173,0.154,0.318,0.27,0.438c0.116,0.12,0.248,0.212,0.396,0.276
		C61.475,30.577,61.633,30.609,61.801,30.609z"/>
	<path fill="#808080" d="M65.28,30.212c0-0.479,0.074-0.909,0.222-1.29c0.148-0.38,0.344-0.702,0.588-0.966s0.522-0.466,0.834-0.605
		c0.312-0.141,0.636-0.21,0.972-0.21c0.368,0,0.698,0.063,0.99,0.191c0.292,0.128,0.536,0.312,0.732,0.552
		c0.196,0.24,0.346,0.528,0.45,0.864s0.156,0.712,0.156,1.128c0,0.216-0.012,0.396-0.036,0.54h-3.936
		c0.04,0.632,0.234,1.132,0.582,1.5s0.802,0.552,1.362,0.552c0.28,0,0.538-0.042,0.774-0.126c0.236-0.084,0.462-0.193,0.678-0.329
		l0.348,0.647c-0.256,0.16-0.54,0.3-0.852,0.42s-0.668,0.18-1.068,0.18c-0.392,0-0.758-0.069-1.098-0.21
		c-0.34-0.14-0.636-0.34-0.888-0.6s-0.45-0.578-0.594-0.954S65.28,30.693,65.28,30.212z M69.36,29.769
		c0-0.601-0.126-1.059-0.378-1.374c-0.252-0.316-0.606-0.475-1.062-0.475c-0.208,0-0.406,0.042-0.594,0.126
		c-0.188,0.084-0.358,0.204-0.51,0.36s-0.278,0.348-0.378,0.576c-0.1,0.228-0.166,0.49-0.198,0.786H69.36z"/>
	<path fill="#808080" d="M74.148,25.245h1.188l1.524,4.224l0.563,1.608h0.049l0.552-1.608l1.513-4.224h1.176v7.872h-0.947v-4.332
		c0-0.352,0.016-0.74,0.047-1.164c0.033-0.424,0.061-0.812,0.084-1.164H79.85l-0.625,1.752l-1.512,4.116h-0.576l-1.512-4.116
		L75,26.457h-0.048c0.024,0.353,0.05,0.74,0.078,1.164c0.028,0.424,0.042,0.812,0.042,1.164v4.332h-0.924V25.245z"/>
	<path fill="#808080" d="M83.256,26.084c-0.191,0-0.354-0.06-0.486-0.18c-0.131-0.12-0.197-0.271-0.197-0.456
		c0-0.192,0.066-0.346,0.197-0.462c0.133-0.116,0.295-0.174,0.486-0.174s0.354,0.058,0.486,0.174s0.197,0.27,0.197,0.462
		c0,0.185-0.064,0.336-0.197,0.456S83.447,26.084,83.256,26.084z M82.752,27.285h0.984v5.832h-0.984V27.285z"/>
	<path fill="#808080" d="M85.549,31.796c0.256,0.208,0.518,0.376,0.785,0.504c0.268,0.129,0.578,0.192,0.93,0.192
		c0.385,0,0.672-0.088,0.865-0.264c0.191-0.176,0.287-0.393,0.287-0.648c0-0.151-0.039-0.284-0.119-0.396
		c-0.08-0.112-0.184-0.21-0.307-0.294c-0.125-0.084-0.266-0.158-0.426-0.223c-0.16-0.063-0.32-0.128-0.48-0.191
		c-0.207-0.072-0.416-0.154-0.623-0.246c-0.209-0.092-0.395-0.204-0.559-0.336s-0.299-0.286-0.402-0.462
		c-0.104-0.177-0.156-0.389-0.156-0.637c0-0.231,0.047-0.449,0.139-0.653s0.225-0.38,0.396-0.528s0.381-0.264,0.629-0.348
		s0.529-0.126,0.84-0.126c0.369,0,0.707,0.063,1.014,0.191c0.309,0.128,0.574,0.284,0.799,0.468l-0.469,0.624
		c-0.199-0.151-0.406-0.275-0.623-0.372c-0.217-0.096-0.453-0.144-0.709-0.144c-0.367,0-0.637,0.084-0.809,0.252
		s-0.258,0.364-0.258,0.588c0,0.137,0.035,0.252,0.107,0.349c0.072,0.096,0.168,0.184,0.287,0.264
		c0.121,0.08,0.258,0.149,0.414,0.21c0.156,0.06,0.318,0.122,0.486,0.186c0.209,0.08,0.418,0.164,0.631,0.252
		c0.211,0.089,0.402,0.198,0.57,0.33s0.305,0.294,0.414,0.486c0.107,0.192,0.16,0.424,0.16,0.696c0,0.239-0.045,0.464-0.137,0.672
		s-0.229,0.392-0.408,0.552s-0.404,0.286-0.672,0.378s-0.574,0.138-0.918,0.138c-0.416,0-0.812-0.075-1.188-0.228
		c-0.377-0.152-0.705-0.344-0.984-0.576L85.549,31.796z"/>
	<path fill="#808080" d="M90.576,31.796c0.256,0.208,0.518,0.376,0.785,0.504c0.268,0.129,0.578,0.192,0.93,0.192
		c0.385,0,0.672-0.088,0.865-0.264c0.191-0.176,0.287-0.393,0.287-0.648c0-0.151-0.039-0.284-0.119-0.396
		c-0.08-0.112-0.184-0.21-0.307-0.294c-0.125-0.084-0.266-0.158-0.426-0.223c-0.16-0.063-0.32-0.128-0.48-0.191
		c-0.207-0.072-0.416-0.154-0.623-0.246c-0.209-0.092-0.395-0.204-0.559-0.336s-0.299-0.286-0.402-0.462
		c-0.104-0.177-0.156-0.389-0.156-0.637c0-0.231,0.047-0.449,0.139-0.653s0.225-0.38,0.396-0.528s0.381-0.264,0.629-0.348
		s0.529-0.126,0.84-0.126c0.369,0,0.707,0.063,1.014,0.191c0.309,0.128,0.574,0.284,0.799,0.468l-0.469,0.624
		c-0.199-0.151-0.406-0.275-0.623-0.372c-0.217-0.096-0.453-0.144-0.709-0.144c-0.367,0-0.637,0.084-0.809,0.252
		s-0.258,0.364-0.258,0.588c0,0.137,0.035,0.252,0.107,0.349c0.072,0.096,0.168,0.184,0.287,0.264
		c0.121,0.08,0.258,0.149,0.414,0.21c0.156,0.06,0.318,0.122,0.486,0.186c0.209,0.08,0.418,0.164,0.631,0.252
		c0.211,0.089,0.402,0.198,0.57,0.33s0.305,0.294,0.414,0.486c0.107,0.192,0.16,0.424,0.16,0.696c0,0.239-0.045,0.464-0.137,0.672
		s-0.229,0.392-0.408,0.552s-0.404,0.286-0.672,0.378S92.6,33.26,92.256,33.26c-0.416,0-0.812-0.075-1.188-0.228
		c-0.377-0.152-0.705-0.344-0.984-0.576L90.576,31.796z"/>
	<path fill="#808080" d="M96.264,26.084c-0.191,0-0.354-0.06-0.486-0.18c-0.131-0.12-0.197-0.271-0.197-0.456
		c0-0.192,0.066-0.346,0.197-0.462c0.133-0.116,0.295-0.174,0.486-0.174s0.354,0.058,0.486,0.174s0.197,0.27,0.197,0.462
		c0,0.185-0.064,0.336-0.197,0.456S96.455,26.084,96.264,26.084z M95.76,27.285h0.984v5.832H95.76V27.285z"/>
	<path fill="#808080" d="M98.713,27.285h0.814l0.084,0.84h0.037c0.279-0.279,0.574-0.514,0.881-0.702
		c0.309-0.188,0.666-0.281,1.074-0.281c0.617,0,1.066,0.191,1.35,0.575c0.285,0.385,0.428,0.952,0.428,1.704v3.696h-0.984v-3.564
		c0-0.552-0.088-0.949-0.264-1.193c-0.178-0.244-0.457-0.366-0.84-0.366c-0.305,0-0.572,0.076-0.805,0.228
		c-0.232,0.152-0.496,0.377-0.793,0.673v4.224h-0.982V27.285z"/>
	<path fill="#808080" d="M104.832,34.233c0-0.248,0.076-0.484,0.227-0.708c0.152-0.225,0.361-0.428,0.625-0.612v-0.048
		c-0.145-0.088-0.266-0.21-0.365-0.366c-0.102-0.156-0.15-0.35-0.15-0.582c0-0.248,0.068-0.464,0.203-0.647
		c0.137-0.185,0.281-0.328,0.432-0.433v-0.048c-0.191-0.16-0.365-0.374-0.521-0.642c-0.156-0.269-0.234-0.578-0.234-0.931
		c0-0.319,0.059-0.607,0.174-0.863c0.117-0.256,0.275-0.475,0.475-0.654s0.434-0.318,0.703-0.414
		c0.268-0.096,0.549-0.144,0.846-0.144c0.16,0,0.309,0.014,0.449,0.042c0.141,0.027,0.266,0.062,0.379,0.102h2.027v0.756H108.9
		c0.135,0.137,0.25,0.309,0.342,0.517s0.137,0.436,0.137,0.684c0,0.312-0.055,0.594-0.168,0.846
		c-0.111,0.252-0.264,0.464-0.455,0.637c-0.191,0.172-0.418,0.306-0.678,0.401s-0.539,0.145-0.834,0.145
		c-0.145,0-0.293-0.019-0.445-0.055s-0.295-0.086-0.432-0.149c-0.104,0.088-0.191,0.186-0.264,0.294
		c-0.072,0.107-0.107,0.242-0.107,0.401c0,0.185,0.072,0.337,0.215,0.456c0.145,0.12,0.416,0.181,0.816,0.181h1.129
		c0.68,0,1.189,0.109,1.529,0.33c0.34,0.22,0.51,0.573,0.51,1.062c0,0.272-0.068,0.53-0.203,0.774
		c-0.137,0.243-0.332,0.458-0.588,0.642c-0.258,0.184-0.566,0.33-0.932,0.438c-0.363,0.107-0.773,0.162-1.229,0.162
		c-0.361,0-0.689-0.034-0.984-0.103c-0.297-0.068-0.551-0.17-0.762-0.306c-0.213-0.137-0.377-0.3-0.492-0.492
		C104.889,34.712,104.832,34.489,104.832,34.233z M105.695,34.101c0,0.312,0.15,0.56,0.449,0.743
		c0.301,0.185,0.715,0.276,1.242,0.276c0.281,0,0.535-0.034,0.764-0.102c0.227-0.068,0.422-0.156,0.582-0.265
		c0.158-0.107,0.283-0.233,0.371-0.378c0.088-0.144,0.133-0.292,0.133-0.443c0-0.272-0.102-0.461-0.301-0.564
		c-0.199-0.104-0.492-0.156-0.877-0.156h-1.008c-0.111,0-0.232-0.006-0.365-0.018s-0.262-0.038-0.391-0.078
		c-0.207,0.152-0.359,0.312-0.455,0.48C105.744,33.765,105.695,33.933,105.695,34.101z M107.244,30.609
		c0.168,0,0.326-0.032,0.473-0.096c0.148-0.064,0.281-0.156,0.396-0.276s0.207-0.266,0.27-0.438
		c0.064-0.172,0.098-0.365,0.098-0.582c0-0.432-0.121-0.766-0.361-1.002c-0.24-0.235-0.531-0.354-0.875-0.354
		s-0.637,0.118-0.877,0.354c-0.24,0.236-0.359,0.57-0.359,1.002c0,0.217,0.031,0.41,0.096,0.582c0.064,0.173,0.154,0.318,0.27,0.438
		c0.117,0.12,0.248,0.212,0.396,0.276C106.918,30.577,107.076,30.609,107.244,30.609z"/>
</g>
</svg>
